<svg xmlns="http://www.w3.org/2000/svg" viewBox="0 0 800 500">
  <defs>
    <linearGradient id="liquid" x1="0" y1="0" x2="0" y2="1">
      <stop offset="0%" stop-color="#f0e68c"/>
      <stop offset="100%" stop-color="#c9a227"/>
    </linearGradient>
    <radialGradient id="glow" cx="75%" cy="50%" r="55%">
      <stop offset="0%" stop-color="#f0e68c" stop-opacity="0.35"/>
      <stop offset="100%" stop-color="#f0e68c" stop-opacity="0"/>
    </radialGradient>
  </defs>
  <rect width="800" height="500" fill="#1a1a2e"/>
  <rect width="800" height="500" fill="url(#glow)"/>
  <g transform="translate(540,70)">
    <ellipse cx="100" cy="30" rx="92" ry="20" fill="#f5e6c8" opacity="0.7"/>
    <path d="M15 30 L185 30 L173 380 Q173 400 153 400 L47 400 Q27 400 27 380 Z" fill="url(#liquid)" stroke="#f5e6c8" stroke-width="2" stroke-opacity="0.35"/>
    <path d="M40 45 L33 380" stroke="#f5e6c8" stroke-width="5" stroke-linecap="round" opacity="0.3"/>
    <circle cx="80" cy="140" r="3" fill="#f5e6c8" opacity="0.55"/>
    <circle cx="115" cy="200" r="2" fill="#f5e6c8" opacity="0.6"/>
    <circle cx="85" cy="260" r="4" fill="#f5e6c8" opacity="0.5"/>
    <circle cx="130" cy="320" r="2" fill="#f5e6c8" opacity="0.55"/>
  </g>
  <g transform="translate(80,400)" opacity="0.2">
    <circle cx="0" cy="0" r="40" fill="#b5452a"/>
    <path d="M0 -40 Q5 -50 10 -55" stroke="#6b4226" stroke-width="3" fill="none"/>
    <ellipse cx="-10" cy="-10" rx="8" ry="4" fill="#f5e6c8" opacity="0.5"/>
  </g>
  <text x="60" y="215" font-family="Georgia, 'Times New Roman', serif" font-size="68" font-weight="bold" fill="#f5e6c8">Apple Cider</text>
  <text x="60" y="258" font-family="Georgia, serif" font-size="22" fill="#f0e68c" letter-spacing="2">DRY APPLE CIDER</text>
  <line x1="60" y1="288" x2="180" y2="288" stroke="#f0e68c" stroke-width="2"/>
  <text x="60" y="328" font-family="Georgia, serif" font-size="15" fill="#d4c4a0" letter-spacing="4">BATCH 7 · 2023</text>
  <text x="60" y="455" font-family="Georgia, serif" font-size="13" fill="#a89b80" letter-spacing="6">DIGDAPO BREWERY</text>
</svg>
